<svg width="38" height="38" viewBox="0 0 38 38" fill="none" xmlns="http://www.w3.org/2000/svg">
<path d="M12.16 28.5L19 21.66L25.84 28.5L28.5 25.84L21.66 19L28.5 12.16L25.84 9.5L19 16.34L12.16 9.5L9.5 12.16L16.34 19L9.5 25.84L12.16 28.5ZM19 38C16.3717 38 13.9017 37.5009 11.59 36.5028C9.27833 35.5047 7.2675 34.1512 5.5575 32.4425C3.8475 30.7338 2.49407 28.7229 1.4972 26.41C0.500336 24.0971 0.00126907 21.6271 2.40506e-06 19C-0.00126426 16.3729 0.497802 13.9029 1.4972 11.59C2.4966 9.27706 3.85003 7.26623 5.5575 5.5575C7.26496 3.84877 9.2758 2.49533 11.59 1.4972C13.9042 0.499067 16.3742 0 19 0C21.6258 0 24.0958 0.499067 26.41 1.4972C28.7242 2.49533 30.735 3.84877 32.4425 5.5575C34.15 7.26623 35.504 9.27706 36.5047 11.59C37.5053 13.9029 38.0038 16.3729 38 19C37.9962 21.6271 37.4971 24.0971 36.5028 26.41C35.5084 28.7229 34.155 30.7338 32.4425 32.4425C30.73 34.1512 28.7191 35.5053 26.41 36.5047C24.1009 37.5041 21.6309 38.0025 19 38Z" fill="black"/>
</svg>
