<svg width="28" height="28" viewBox="0 0 28 28" fill="none" xmlns="http://www.w3.org/2000/svg">
<path fill-rule="evenodd" clip-rule="evenodd" d="M5.43208 3.12602C5.37904 3.12549 5.32643 3.13551 5.27731 3.1555C5.22818 3.17549 5.18353 3.20505 5.14593 3.24246C5.10834 3.27987 5.07856 3.32438 5.05832 3.37341C5.03809 3.42243 5.02781 3.47499 5.02808 3.52802V20.664H22.9721V3.52802C22.9726 3.47482 22.9625 3.42205 22.9424 3.37279C22.9223 3.32353 22.8926 3.27878 22.8549 3.24116C22.8173 3.20354 22.7726 3.1738 22.7233 3.15369C22.6741 3.13357 22.6213 3.12349 22.5681 3.12402L5.43208 3.12602ZM2.02808 3.52802C2.02808 1.64802 3.55208 0.124023 5.43208 0.124023H22.5681C24.4481 0.124023 25.9721 1.64802 25.9721 3.52802V24.472C25.9721 26.352 24.4481 27.874 22.5681 27.874H5.43208C3.55208 27.874 2.02808 26.352 2.02808 24.472V3.52802ZM9.33608 9.18402C9.79808 8.52802 10.4341 7.89002 11.0161 7.57402C11.1937 7.46119 11.3978 7.39705 11.6081 7.38802C11.6821 7.39002 11.7741 7.40802 11.9061 7.53402V7.54802C11.9009 7.73303 11.8637 7.91574 11.7961 8.08802C11.5901 8.68202 11.1821 9.39202 10.6881 10.242L10.6621 10.286C10.2201 11.05 9.68608 11.966 9.43408 12.8C9.27121 13.2915 9.23004 13.8151 9.31408 14.326C9.43408 14.938 9.78808 15.456 10.3441 15.806C11.5921 16.59 12.8501 16.042 13.6541 15.502C14.4721 14.952 15.2861 14.11 15.9781 13.398L16.0001 13.374C16.7561 12.594 17.3801 11.954 17.9341 11.572C18.0813 11.4589 18.2471 11.3723 18.4241 11.316L18.4301 11.322L18.4241 11.362C18.3641 11.642 18.1801 11.994 17.8581 12.602L17.8081 12.698C17.5201 13.242 17.0921 14.054 17.0201 14.906C16.9801 15.372 17.0401 15.878 17.2881 16.374C17.5341 16.866 17.9181 17.264 18.3961 17.584C18.6719 17.7681 19.0095 17.835 19.3347 17.7701C19.6599 17.7053 19.946 17.5139 20.1301 17.238C20.3141 16.9622 20.3811 16.6246 20.3162 16.2994C20.2513 15.9742 20.0599 15.6881 19.7841 15.504C19.5881 15.372 19.5381 15.284 19.5281 15.262C19.5181 15.244 19.5041 15.21 19.5121 15.116C19.5321 14.854 19.6921 14.484 20.0181 13.866L20.1081 13.698C20.3701 13.206 20.7381 12.522 20.8721 11.862C20.9768 11.3924 20.9491 10.9029 20.7921 10.448C20.5976 9.93997 20.244 9.50848 19.7841 9.21803C18.5441 8.39003 17.2761 8.98802 16.5121 9.51402C15.7461 10.044 14.9661 10.85 14.2921 11.544L14.2061 11.634C13.4561 12.408 12.8241 13.048 12.2601 13.426C12.1139 13.5295 11.9545 13.613 11.7861 13.674L11.8261 13.528C11.9801 13.014 12.3541 12.352 12.8501 11.498L12.9081 11.398C13.3481 10.642 13.8701 9.74203 14.1601 8.90203C14.4481 8.06203 14.6741 6.76802 13.6881 5.78202C13.1643 5.23838 12.4504 4.91869 11.6961 4.89002C10.9961 4.86402 10.3561 5.08802 9.82608 5.37602C8.78208 5.94002 7.88208 6.91002 7.29408 7.74002C7.19477 7.87373 7.12318 8.02595 7.08352 8.18771C7.04386 8.34948 7.03694 8.51754 7.06314 8.68202C7.08935 8.8465 7.14816 9.00409 7.23613 9.14552C7.32409 9.28695 7.43944 9.40938 7.57538 9.50561C7.71133 9.60184 7.86513 9.66992 8.02776 9.70587C8.1904 9.74183 8.35857 9.74491 8.52241 9.71495C8.68625 9.68499 8.84245 9.62259 8.98184 9.53142C9.12122 9.44024 9.24098 9.32213 9.33408 9.18402H9.33608Z" fill="#2546B4"/>
</svg>
