<svg width="25" height="26" viewBox="0 0 25 26" fill="none" xmlns="http://www.w3.org/2000/svg">
<path d="M12.5028 17.55C11.31 17.55 10.1659 17.0706 9.32246 16.2173C8.47897 15.364 8.00511 14.2067 8.00511 13C8.00511 11.7933 8.47897 10.636 9.32246 9.78267C10.1659 8.92938 11.31 8.45 12.5028 8.45C13.6957 8.45 14.8397 8.92938 15.6832 9.78267C16.5267 10.636 17.0006 11.7933 17.0006 13C17.0006 14.2067 16.5267 15.364 15.6832 16.2173C14.8397 17.0706 13.6957 17.55 12.5028 17.55ZM22.0509 14.261C22.1023 13.845 22.1408 13.429 22.1408 13C22.1408 12.571 22.1023 12.142 22.0509 11.7L24.7624 9.581C25.0065 9.386 25.0708 9.035 24.9166 8.749L22.3464 4.251C22.1922 3.965 21.8453 3.848 21.5626 3.965L18.3627 5.265C17.6945 4.758 17.0006 4.316 16.191 3.991L15.7155 0.546002C15.6894 0.392885 15.6106 0.254057 15.493 0.154119C15.3753 0.0541812 15.2266 -0.000415707 15.073 2.38351e-06H9.9327C9.61144 2.38351e-06 9.34157 0.234002 9.29017 0.546002L8.8147 3.991C8.00511 4.316 7.31117 4.758 6.64293 5.265L3.44312 3.965C3.1604 3.848 2.81344 3.965 2.65923 4.251L0.0890957 8.749C-0.077963 9.035 -0.000858813 9.386 0.243304 9.581L2.95479 11.7C2.90339 12.142 2.86484 12.571 2.86484 13C2.86484 13.429 2.90339 13.845 2.95479 14.261L0.243304 16.419C-0.000858813 16.614 -0.077963 16.965 0.0890957 17.251L2.65923 21.749C2.81344 22.035 3.1604 22.139 3.44312 22.035L6.64293 20.722C7.31117 21.242 8.00511 21.684 8.8147 22.009L9.29017 25.454C9.34157 25.766 9.61144 26 9.9327 26H15.073C15.3942 26 15.6641 25.766 15.7155 25.454L16.191 22.009C17.0006 21.671 17.6945 21.242 18.3627 20.722L21.5626 22.035C21.8453 22.139 22.1922 22.035 22.3464 21.749L24.9166 17.251C25.0708 16.965 25.0065 16.614 24.7624 16.419L22.0509 14.261Z" fill="#2546B4"/>
</svg>
