<svg width="29" height="29" viewBox="0 0 29 29" fill="none" xmlns="http://www.w3.org/2000/svg">
<path d="M12.9669 4.43324C12.6043 4.0708 12.1126 3.86719 11.6 3.86719C11.0873 3.86719 10.5957 4.0708 10.2331 4.43324L1.53313 13.1332C1.17068 13.4958 0.967072 13.9875 0.967072 14.5001C0.967072 15.0128 1.17068 15.5044 1.53313 15.867L10.2331 24.567C10.5978 24.9191 11.0861 25.114 11.593 25.1096C12.0999 25.1052 12.5849 24.9019 12.9433 24.5434C13.3018 24.185 13.5051 23.7001 13.5095 23.1931C13.5139 22.6862 13.319 22.1979 12.9669 21.8332L7.73333 16.4334H26.1C26.6127 16.4334 27.1045 16.2298 27.4671 15.8672C27.8296 15.5046 28.0333 15.0129 28.0333 14.5001C28.0333 13.9874 27.8296 13.4956 27.4671 13.133C27.1045 12.7705 26.6127 12.5668 26.1 12.5668H7.73333L12.9669 7.16697C13.3293 6.80442 13.5329 6.31276 13.5329 5.80011C13.5329 5.28746 13.3293 4.79579 12.9669 4.43324Z" fill="white"/>
</svg>
