<svg width="28" height="28" viewBox="0 0 28 28" fill="none" xmlns="http://www.w3.org/2000/svg">
<path d="M24.5001 18.6668H3.50008V4.66683H24.5001M24.5001 2.3335H3.50008C2.20508 2.3335 1.16675 3.37183 1.16675 4.66683V18.6668C1.16675 19.2857 1.41258 19.8792 1.85017 20.3167C2.28775 20.7543 2.88124 21.0002 3.50008 21.0002H11.6667V23.3335H9.33342V25.6668H18.6667V23.3335H16.3334V21.0002H24.5001C25.1189 21.0002 25.7124 20.7543 26.15 20.3167C26.5876 19.8792 26.8334 19.2857 26.8334 18.6668V4.66683C26.8334 4.04799 26.5876 3.4545 26.15 3.01691C25.7124 2.57933 25.1189 2.3335 24.5001 2.3335Z" fill="#2546B4"/>
</svg>
