<svg width="26" height="26" viewBox="0 0 26 26" fill="none" xmlns="http://www.w3.org/2000/svg">
<path d="M13 10.5C14.3261 10.5 15.5979 9.97322 16.5355 9.03553C17.4732 8.09785 18 6.82608 18 5.5C18 4.17392 17.4732 2.90215 16.5355 1.96447C15.5979 1.02678 14.3261 0.5 13 0.5C11.6739 0.5 10.4021 1.02678 9.46447 1.96447C8.52678 2.90215 8 4.17392 8 5.5C8 6.82608 8.52678 8.09785 9.46447 9.03553C10.4021 9.97322 11.6739 10.5 13 10.5ZM4.875 14.25C5.7038 14.25 6.49866 13.9208 7.08471 13.3347C7.67076 12.7487 8 11.9538 8 11.125C8 10.2962 7.67076 9.50134 7.08471 8.91529C6.49866 8.32924 5.7038 8 4.875 8C4.0462 8 3.25134 8.32924 2.66529 8.91529C2.07924 9.50134 1.75 10.2962 1.75 11.125C1.75 11.9538 2.07924 12.7487 2.66529 13.3347C3.25134 13.9208 4.0462 14.25 4.875 14.25ZM24.25 11.125C24.25 11.9538 23.9208 12.7487 23.3347 13.3347C22.7487 13.9208 21.9538 14.25 21.125 14.25C20.2962 14.25 19.5013 13.9208 18.9153 13.3347C18.3292 12.7487 18 11.9538 18 11.125C18 10.2962 18.3292 9.50134 18.9153 8.91529C19.5013 8.32924 20.2962 8 21.125 8C21.9538 8 22.7487 8.32924 23.3347 8.91529C23.9208 9.50134 24.25 10.2962 24.25 11.125ZM13 11.75C14.6576 11.75 16.2473 12.4085 17.4194 13.5806C18.5915 14.7527 19.25 16.3424 19.25 18V25.5H6.75V18C6.75 16.3424 7.40848 14.7527 8.58058 13.5806C9.75269 12.4085 11.3424 11.75 13 11.75ZM4.25 18C4.25 17.1338 4.375 16.2975 4.61 15.5075L4.3975 15.525C3.3261 15.6426 2.33583 16.1516 1.61658 16.9544C0.897327 17.7572 0.49972 18.7972 0.5 19.875V25.5H4.25V18ZM25.5 25.5V19.875C25.5001 18.7605 25.0749 17.6879 24.3111 16.8762C23.5473 16.0646 22.5025 15.575 21.39 15.5075C21.6238 16.2975 21.75 17.1338 21.75 18V25.5H25.5Z" fill="#2546B4"/>
</svg>
