<svg width="28" height="28" viewBox="0 0 28 28" fill="none" xmlns="http://www.w3.org/2000/svg">
<g clip-path="url(#clip0_124_13)">
<path d="M26.8333 12.8333H25.6083C25.335 10.1572 24.1471 7.65724 22.2449 5.75508C20.3428 3.85293 17.8428 2.665 15.1667 2.39167V0H12.8333V2.39167C10.1572 2.665 7.65724 3.85293 5.75508 5.75508C3.85293 7.65724 2.665 10.1572 2.39167 12.8333H0V15.1667H2.39167C2.665 17.8428 3.85293 20.3428 5.75508 22.2449C7.65724 24.1471 10.1572 25.335 12.8333 25.6083V28H15.1667V25.6083C17.8428 25.335 20.3428 24.1471 22.2449 22.2449C24.1471 20.3428 25.335 17.8428 25.6083 15.1667H28V12.8333H26.8333ZM16.0102 12.8333C15.8068 12.4838 15.5162 12.1932 15.1667 11.9898V9.1945C16.0481 9.41001 16.8535 9.86326 17.4951 10.5049C18.1367 11.1465 18.59 11.9519 18.8055 12.8333H16.0102ZM18.8055 15.1667C18.59 16.0481 18.1367 16.8535 17.4951 17.4951C16.8535 18.1367 16.0481 18.59 15.1667 18.8055V16.0102C15.5162 15.8068 15.8068 15.5162 16.0102 15.1667H18.8055ZM12.8333 4.74833V7.40017C11.4809 7.64182 10.2351 8.29219 9.26363 9.26363C8.29219 10.2351 7.64182 11.4809 7.40017 12.8333H4.74717C5.00954 10.7806 5.94588 8.87294 7.40932 7.40971C8.87277 5.94647 10.7805 5.01041 12.8333 4.74833ZM11.9898 12.8333H9.1945C9.41001 11.9519 9.86326 11.1465 10.5049 10.5049C11.1465 9.86326 11.9519 9.41001 12.8333 9.1945V11.9898C12.4838 12.1932 12.1932 12.4838 11.9898 12.8333ZM12.8333 16.0102V18.8055C11.9519 18.59 11.1465 18.1367 10.5049 17.4951C9.86326 16.8535 9.41001 16.0481 9.1945 15.1667H11.9898C12.1932 15.5162 12.4838 15.8068 12.8333 16.0102ZM4.74833 15.1667H7.40017C7.64182 16.5191 8.29219 17.7649 9.26363 18.7364C10.2351 19.7078 11.4809 20.3582 12.8333 20.5998V23.2528C10.7806 22.9905 8.87294 22.0541 7.40971 20.5907C5.94647 19.1272 5.01041 17.2195 4.74833 15.1667ZM15.1667 23.2517V20.5998C16.5191 20.3582 17.7649 19.7078 18.7364 18.7364C19.7078 17.7649 20.3582 16.5191 20.5998 15.1667H23.2528C22.9905 17.2194 22.0541 19.1271 20.5907 20.5903C19.1272 22.0535 17.2195 22.9896 15.1667 23.2517ZM20.5998 12.8333C20.3582 11.4809 19.7078 10.2351 18.7364 9.26363C17.7649 8.29219 16.5191 7.64182 15.1667 7.40017V4.74717C17.2194 5.00954 19.1271 5.94588 20.5903 7.40932C22.0535 8.87277 22.9896 10.7805 23.2517 12.8333H20.5998Z" fill="#2546B4"/>
</g>
<defs>
<clipPath id="clip0_124_13">
<rect width="28" height="28" fill="white"/>
</clipPath>
</defs>
</svg>
